# xmcd
#
# Track frame offsets:
#	150
#	14245
#	30832
#	45208
#	59346
#	76303
#	90649
#	105082
#	123088
#	138683
#	156413
#	172854
#
# Disc length: 2456 seconds
#
# Revision: 1
# Processed by: cddbd v1.5.1PL2 Copyright (c) Steve Scherf et al.
# Submitted via: EasyCDDAExtractor 10.0.1.1
#
DISCID=8709960c
DTITLE=MD Greyling - Droomkasteel
DYEAR=2005
DGENRE=Blues
TTITLE0=Eenvoudig
TTITLE1=Droomkasteel
TTITLE2=Strate Van Jou Lyf
TTITLE3=Boemelaar
TTITLE4=Donker Geheime
TTITLE5=More Aand
TTITLE6=Die Sewe Af
TTITLE7=Jo'burg Girl
TTITLE8=Home Tomorrow
TTITLE9=Tussen Die Lyne
TTITLE10=Sort Jouself Uit
TTITLE11=Alleen Sonder Jou
EXTD=
EXTT0=
EXTT1=
EXTT2=
EXTT3=
EXTT4=
EXTT5=
EXTT6=
EXTT7=
EXTT8=
EXTT9=
EXTT10=
EXTT11=
PLAYORDER=
